<?xml version="1.0" encoding="iso-8859-1"?>
<!-- Generator: Adobe Illustrator 16.0.0, SVG Export Plug-In . SVG Version: 6.00 Build 0)  -->
<!DOCTYPE svg PUBLIC "-//W3C//DTD SVG 1.1//EN" "http://www.w3.org/Graphics/SVG/1.1/DTD/svg11.dtd">
<svg version="1.1" id="Capa_1" xmlns="http://www.w3.org/2000/svg" xmlns:xlink="http://www.w3.org/1999/xlink" x="0px" y="0px"
	 width="415.205px" height="415.205px" viewBox="0 0 415.205 415.205" style="enable-background:new 0 0 415.205 415.205;"
	 xml:space="preserve">
<g>
	<g>
		<g>
			<path d="M391.443,156.054h-24.472c-13.313-37.049-48.796-63.618-90.372-63.618c-41.575,0-77.06,26.569-90.375,63.618H23.763
				C10.64,156.054,0,166.694,0,179.817v86.188c0,13.125,10.64,23.767,23.763,23.767h367.68c13.121,0,23.762-10.642,23.762-23.767
				v-86.188C415.205,166.694,404.564,156.054,391.443,156.054z M84.663,254.658H48.761c-6.654,0-12.049-5.396-12.049-12.049
				c0-6.656,5.395-12.05,12.049-12.05h35.901c6.655,0,12.049,5.394,12.049,12.05C96.712,249.263,91.317,254.658,84.663,254.658z
				 M84.663,215.041H48.761c-6.654,0-12.049-5.395-12.049-12.048c0-6.655,5.395-12.049,12.049-12.049h35.901
				c6.655,0,12.049,5.394,12.049,12.049C96.712,209.648,91.317,215.041,84.663,215.041z M276.6,252.436c-35.291,0-64-28.71-64-64
				c0-35.289,28.709-64,64-64c35.289,0,64,28.711,64,64C340.6,223.726,311.889,252.436,276.6,252.436z"/>
			<path d="M276.77,148.653c-22.09,0-40,17.91-40,40c0,22.091,17.91,40,40,40c22.091,0,40-17.909,40-40
				C316.77,166.563,298.857,148.653,276.77,148.653z M276.77,177.333c-9.112,0-16.5-4.533-16.5-10.125
				c0-5.592,7.388-10.125,16.5-10.125c9.113,0,16.5,4.533,16.5,10.125C293.27,172.8,285.881,177.333,276.77,177.333z"/>
			<path d="M28.494,312.42c0,5.716,4.634,10.35,10.35,10.35h55.737c5.716,0,10.35-4.634,10.35-10.35v-10.088H28.494V312.42
				L28.494,312.42z"/>
			<path d="M310.275,312.42c0,5.716,4.635,10.35,10.352,10.35h55.736c5.715,0,10.35-4.634,10.35-10.35v-10.088h-76.438V312.42
				L310.275,312.42z"/>
		</g>
	</g>
</g>
<g>
</g>
<g>
</g>
<g>
</g>
<g>
</g>
<g>
</g>
<g>
</g>
<g>
</g>
<g>
</g>
<g>
</g>
<g>
</g>
<g>
</g>
<g>
</g>
<g>
</g>
<g>
</g>
<g>
</g>
</svg>
